<svg id="Capa_1" enable-background="new 0 0 512 512" height="512" viewBox="0 0 512 512" width="512" xmlns="http://www.w3.org/2000/svg"><path d="m459.406 132.928-128.534-128.533c-2.812-2.815-6.628-4.395-10.606-4.395h-216.9c-30.419 0-55.166 24.748-55.166 55.168v401.666c0 30.418 24.747 55.166 55.166 55.166h305.268c30.419 0 55.166-24.748 55.166-55.166v-313.301c-.001-3.978-1.582-7.793-4.394-10.605z" fill="#e7f0ef"/><path d="m459.407 132.928-128.534-128.533c-2.812-2.815-6.628-4.395-10.606-4.395h-64.266v512h152.632c30.419 0 55.167-24.748 55.167-55.166v-313.301c0-3.978-1.58-7.793-4.393-10.605z" fill="#c5e1e6"/><path d="m255.999 192.801c-70.285 0-127.467 57.182-127.467 127.467s57.182 127.467 127.467 127.467 127.467-57.182 127.467-127.467-57.181-127.467-127.467-127.467z" fill="#54e360"/><path d="m255.999 192.801v254.934c70.285 0 127.467-57.182 127.467-127.467s-57.181-127.467-127.467-127.467z" fill="#1fbf66"/><path d="m244.638 357.99c-3.979 0-7.794-1.58-10.606-4.395l-22.723-22.723c-5.858-5.857-5.858-15.355 0-21.213 5.857-5.857 15.355-5.857 21.213 0l12.116 12.117 34.834-34.838c5.859-5.857 15.355-5.859 21.214 0 5.858 5.857 5.858 15.355.001 21.215l-45.441 45.441c-2.814 2.816-6.629 4.396-10.608 4.396z" fill="#e7f0ef"/><path d="m459.407 132.928-128.534-128.533c-4.29-4.291-10.741-5.574-16.347-3.252-5.605 2.322-9.26 7.791-9.26 13.857v88.367c0 30.42 24.747 55.166 55.166 55.166h88.368c6.066 0 11.537-3.654 13.858-9.26 2.322-5.605 1.039-12.056-3.251-16.345z" fill="#8db9c4"/><path d="m300.686 286.94c-5.858-5.859-15.354-5.857-21.214 0l-23.475 23.477v42.428l44.689-44.689c5.858-5.861 5.858-15.359 0-21.216z" fill="#c5e1e6"/></svg>