<svg id="Capa_1" enable-background="new 0 0 512 512" height="512" viewBox="0 0 512 512" width="512" xmlns="http://www.w3.org/2000/svg"><g><g><path clip-rule="evenodd" d="m119.979 396.451v105.549h192.885c-63.247 0-114.525-51.164-114.525-114.271 0-3.107.114-6.214.371-9.264h-60.705c-9.913.001-18.026 8.096-18.026 17.986z" fill="#a0e5a5" fill-rule="evenodd"/></g><g><path clip-rule="evenodd" d="m312.864 273.458c-60.134 0-109.44 46.233-114.154 105.007-.257 3.05-.371 6.157-.371 9.264 0 63.107 51.278 114.271 114.525 114.271s114.497-51.164 114.497-114.271-51.249-114.271-114.497-114.271zm-48.45 101.388c-9.77-9.748-9.77-25.71 0-35.458s25.739-9.748 35.509 0l12.941 12.884 12.912-12.884c9.77-9.748 25.768-9.748 35.537 0 9.77 9.748 9.77 25.71 0 35.458l-12.941 12.884 12.941 12.884c9.77 9.748 9.77 25.71 0 35.458s-25.768 9.748-35.537 0l-12.912-12.884-12.941 12.884c-9.77 9.748-25.739 9.748-35.509 0s-9.77-25.71 0-35.458l12.912-12.884z" fill="#ff7b79" fill-rule="evenodd"/></g><g><path clip-rule="evenodd" d="m134.349 75.045v103.439c-.943-12.827-11.741-23.031-24.853-23.031-13.684 0-24.91 11.173-24.91 24.855v53.045c0 34.176 7.885 43.297 27.681 69.264 25.996 34.062 25.739 39.677 25.739 68.95v6.898h60.705c4.714-58.774 54.02-105.007 114.154-105.007l-.314-164.751c0-11.031-9.056-20.066-20.111-20.066-11.084 0-20.14 9.036-20.14 20.066v-58.916c0-12.627-10.341-22.945-22.996-22.945-12.627 0-22.968 10.318-22.968 22.945v-16.846c0-12.627-10.341-22.945-22.996-22.945s-22.996 10.318-22.996 22.945v41.986c-.057-12.57-10.37-22.831-22.996-22.831-12.63 0-22.999 10.318-22.999 22.945z" fill="#f5c6af" fill-rule="evenodd"/></g><g><path clip-rule="evenodd" d="m299.923 339.387c-9.77-9.748-25.739-9.748-35.509 0s-9.77 25.71 0 35.458l12.912 12.884-12.912 12.884c-9.77 9.748-9.77 25.71 0 35.458s25.739 9.748 35.509 0l12.941-12.884 12.912 12.884c9.77 9.748 25.768 9.748 35.537 0 9.77-9.748 9.77-25.71 0-35.458l-12.941-12.884 12.941-12.884c9.77-9.748 9.77-25.71 0-35.458s-25.768-9.748-35.537 0l-12.912 12.884z" fill="#fff" fill-rule="evenodd"/></g><g><path d="m318.713 332.308-5.857 5.844-5.869-5.844c-13.686-13.653-35.95-13.655-49.636 0-6.619 6.605-10.265 15.416-10.265 24.81.001 9.394 3.646 18.204 10.265 24.808l5.818 5.805-5.817 5.805c-6.62 6.604-10.266 15.414-10.266 24.808 0 9.395 3.646 18.204 10.265 24.809 13.686 13.657 35.952 13.653 49.628.008l5.877-5.852 5.857 5.844c6.847 6.831 15.839 10.246 24.832 10.246s17.985-3.415 24.832-10.246c6.618-6.604 10.264-15.415 10.264-24.809 0-9.393-3.646-18.203-10.271-24.815l-5.823-5.797 5.831-5.805c6.618-6.604 10.264-15.414 10.264-24.808s-3.645-18.204-10.264-24.81c-13.694-13.664-35.971-13.663-49.665-.001zm39.928 24.809c0 4.043-1.56 7.825-4.383 10.642l-12.941 12.884c-1.885 1.877-2.944 4.427-2.944 7.087s1.06 5.21 2.944 7.087l12.934 12.876c2.831 2.825 4.391 6.607 4.391 10.649 0 4.043-1.56 7.825-4.391 10.65-5.902 5.891-15.508 5.891-21.41 0l-12.913-12.884c-1.952-1.947-4.508-2.921-7.063-2.921-2.552 0-5.104.971-7.056 2.913l-12.948 12.892c-5.895 5.884-15.486 5.882-21.383 0-2.831-2.825-4.391-6.607-4.391-10.65 0-4.042 1.56-7.824 4.392-10.649l12.912-12.884c1.88-1.876 2.937-4.423 2.937-7.079s-1.057-5.203-2.937-7.079l-12.913-12.884c-2.831-2.825-4.391-6.607-4.391-10.649 0-4.043 1.56-7.826 4.392-10.651 5.893-5.881 15.485-5.885 21.39.008l12.94 12.884c3.904 3.887 10.217 3.885 14.119-.008l12.913-12.884c5.902-5.891 15.508-5.89 21.41-.001 2.831 2.825 4.39 6.607 4.39 10.651z"/><path d="m428.565 341.725c-2.046-5.13-7.863-7.626-12.993-5.583-5.13 2.046-7.63 7.864-5.583 12.993 15.453 38.736 6.335 82.825-23.229 112.323-40.74 40.65-107.054 40.648-147.819 0-19.743-19.698-30.615-45.883-30.615-73.729 0-2.716.107-5.415.312-8.094.016-.14.026-.282.036-.424 1.984-24.635 12.551-47.534 30.264-65.207 19.978-19.916 46.627-30.512 73.787-30.553.047.001.092.007.139.007h.02c.057 0 .111-.008.167-.009 12.951.021 26.011 2.432 38.516 7.398 5.132 2.037 10.947-.469 12.985-5.603 2.038-5.133-.47-10.946-5.603-12.985-11.751-4.667-23.916-7.439-36.103-8.417l-.295-155.135c0-16.579-13.508-30.066-30.111-30.066-3.557 0-6.969.622-10.14 1.755v-30.605c0-18.166-14.803-32.945-32.997-32.945-5.544 0-10.769 1.381-15.36 3.807-4.891-12.094-16.762-20.653-30.605-20.653-18.194 0-32.997 14.779-32.997 32.945v11.822c-3.991-1.714-8.383-2.667-12.996-2.667-18.194 0-32.997 14.779-32.997 32.945v73.724c-4.51-2.123-9.544-3.315-14.853-3.315-19.25 0-34.911 15.636-34.911 34.854v53.045c0 36.395 9.275 48.54 27.754 72.738l1.979 2.593c23.573 30.886 23.69 34.543 23.688 61.629-10.529 4.03-18.026 14.223-18.026 26.137v105.55c0 5.522 4.478 10 10 10s10-4.478 10-10v-105.549c0-4.403 3.601-7.985 8.026-7.985h50.328c.19 32.921 13.123 63.846 36.482 87.152 24.278 24.209 56.163 36.313 88.045 36.313 31.882-.001 63.762-12.105 88.025-36.315 35.238-35.157 46.103-87.713 27.68-133.891zm-310.331-47.772c-18.167-23.789-23.649-30.969-23.649-60.6v-53.045c0-8.19 6.689-14.854 14.911-14.854 7.703 0 14.06 5.828 14.853 13.282v48.604c0 .797.103 1.568.279 2.311-.182.767-.286 1.564-.279 2.387.045 5.495 4.513 9.919 9.998 9.919h.083c13.518-.123 24.309 3.753 32.097 11.479 9.375 9.299 14.128 23.928 14.128 43.48 0 5.522 4.478 10 10 10s10-4.478 10-10c0-25.081-6.743-44.487-20.043-57.68-9.421-9.345-21.824-15.042-36.263-16.741v-40.94c.051-.409.086-.824.086-1.247 0-.78-.035-1.552-.086-2.319v-102.944c0-7.138 5.83-12.945 12.997-12.945 7.166 0 12.996 5.808 12.996 12.945v59.031 25.396c0 5.522 4.478 10 10 10s10-4.478 10-10v-25.396-59.031-42.1c0-7.138 5.83-12.945 12.997-12.945 7.166 0 12.996 5.808 12.996 12.945v131.259c0 5.522 4.478 10 10 10s10-4.478 10-10v-114.413c0-7.138 5.817-12.945 12.968-12.945 7.167 0 12.997 5.808 12.997 12.945v58.917 16.96 43.553c0 5.522 4.478 10 10 10s10-4.478 10-10v-43.553-16.96c0-5.551 4.549-10.066 10.14-10.066 5.575 0 10.111 4.516 10.111 10.085l.295 155.132c-28.874 2.332-56.658 14.677-78.032 35.985-18.914 18.872-30.99 42.743-35.003 68.623h-41.807c-.057-29.295-1.592-37.592-27.785-71.911z"/><path d="m393.823 316.922c2.56 0 5.118-.977 7.071-2.929 3.905-3.905 3.905-10.237 0-14.143l-.028-.028c-3.905-3.905-10.223-3.893-14.128.015-3.905 3.905-3.892 10.251.014 14.156 1.953 1.952 4.511 2.929 7.071 2.929z"/></g></g></svg>